<?xml version="1.0" encoding="UTF-8" standalone="no"?>
<!DOCTYPE svg PUBLIC "-//W3C//DTD SVG 1.1//EN" "http://www.w3.org/Graphics/SVG/1.1/DTD/svg11.dtd">
<svg version="1.1" xmlns="http://www.w3.org/2000/svg" xmlns:xlink="http://www.w3.org/1999/xlink" preserveAspectRatio="xMidYMid meet" viewBox="0 0 640 640" width="20" height="20"><defs><path d="M9.37 341.26C-3.12 328.76 -3.12 308.5 9.37 296C13.9 291.47 50.1 255.27 54.63 250.75C67.12 238.25 87.39 238.25 99.88 250.75C109.22 260.09 155.93 306.79 240 390.86C420.07 210.79 520.11 110.75 540.12 90.75C552.62 78.25 572.88 78.25 585.37 90.75C589.9 95.27 626.1 131.47 630.63 136C643.12 148.5 643.12 168.76 630.63 181.26C593.83 218.06 299.43 512.46 262.63 549.26C250.13 561.75 229.87 561.75 217.37 549.26C217.37 549.26 30.17 362.06 9.37 341.26Z" id="c1p6NPnZ1C"></path></defs><g><g><g><use xlink:href="#c1p6NPnZ1C" opacity="1" fill="#f07e05" fill-opacity="1"></use><g><use xlink:href="#c1p6NPnZ1C" opacity="1" fill-opacity="0" stroke="#000000" stroke-width="1" stroke-opacity="0"></use></g></g></g></g></svg>