<?xml version="1.0" encoding="UTF-8" standalone="no"?>
<!DOCTYPE svg PUBLIC "-//W3C//DTD SVG 1.1//EN" "http://www.w3.org/Graphics/SVG/1.1/DTD/svg11.dtd">
<svg version="1.1" xmlns="http://www.w3.org/2000/svg" xmlns:xlink="http://www.w3.org/1999/xlink" preserveAspectRatio="xMidYMid meet" viewBox="0 0 640 640" width="640" height="640"><defs><path d="M489.63 128.75C501.37 117 520.38 117 532 128.75C534.83 131.57 557.42 154.18 560.25 157C572 168.75 572 187.75 560.25 199.38C552.22 207.42 512.1 247.62 439.88 320C512.17 392.3 552.34 432.47 560.38 440.5C572.12 452.25 572.12 471.25 560.38 482.87C557.55 485.71 534.95 508.41 532.13 511.25C520.38 523 501.37 523 489.75 511.25C472.75 494.25 336.75 358.25 319.75 341.25C307.88 329.5 307.88 310.5 319.63 298.75C353.63 264.75 472.63 145.75 489.63 128.75ZM249.63 511.25C261.38 523 280.38 523 292 511.25C294.83 508.43 317.43 485.83 320.25 483C332 471.25 332 452.25 320.25 440.63C312.22 432.58 272.1 392.38 199.88 320C272.17 247.7 312.34 207.53 320.38 199.5C332.13 187.75 332.13 168.75 320.38 157.13C317.55 154.29 294.95 131.59 292.13 128.75C280.38 117 261.38 117 249.75 128.75C232.75 145.75 96.75 281.75 79.75 298.75C67.87 310.5 67.87 329.5 79.62 341.25C113.62 375.25 232.63 494.25 249.63 511.25Z" id="h1hnw85LYa"></path></defs><g><g><g><use xlink:href="#h1hnw85LYa" opacity="1" fill="#f07e05" fill-opacity="1"></use><g><use xlink:href="#h1hnw85LYa" opacity="1" fill-opacity="0" stroke="#000000" stroke-width="1" stroke-opacity="0"></use></g></g></g></g></svg>