<?xml version="1.0" encoding="UTF-8" standalone="no"?>
<!DOCTYPE svg PUBLIC "-//W3C//DTD SVG 1.1//EN" "http://www.w3.org/Graphics/SVG/1.1/DTD/svg11.dtd">
<svg version="1.1" xmlns="http://www.w3.org/2000/svg" xmlns:xlink="http://www.w3.org/1999/xlink" preserveAspectRatio="xMidYMid meet" viewBox="0 0 640 640" width="320" height="320"><defs><path d="M150.38 511.25C138.63 523 119.63 523 108 511.25C105.18 508.43 82.58 485.83 79.75 483C68 471.25 68 452.25 79.75 440.63C87.78 432.59 127.95 392.42 200.25 320.13C127.95 247.83 87.78 207.66 79.75 199.63C68 187.88 68 168.88 79.75 157.25C82.56 154.4 105.06 131.6 107.88 128.75C119.63 117 138.63 117 150.25 128.75C167.25 145.75 303.25 281.75 320.25 298.75C332.13 310.5 332.13 329.5 320.38 341.25C286.38 375.25 167.38 494.25 150.38 511.25ZM390.38 128.75C378.63 117 359.63 117 348 128.75C345.18 131.57 322.58 154.18 319.75 157C308 168.75 308 187.75 319.75 199.38C327.78 207.41 367.95 247.58 440.25 319.88C367.95 392.17 327.78 432.34 319.75 440.38C308 452.13 308 471.13 319.75 482.75C322.58 485.58 345.18 508.18 348 511C359.75 522.75 378.75 522.75 390.38 511C407.38 494 543.38 358 560.38 341C572.13 329.5 572.13 310.5 560.38 298.75C526.38 264.75 407.38 145.75 390.38 128.75Z" id="a22XUCk1MY"></path></defs><g><g><g><use xlink:href="#a22XUCk1MY" opacity="1" fill="#f07e05" fill-opacity="1"></use><g><use xlink:href="#a22XUCk1MY" opacity="1" fill-opacity="0" stroke="#000000" stroke-width="1" stroke-opacity="0"></use></g></g></g></g></svg>