<?xml version="1.0" encoding="UTF-8" standalone="no"?>
<!DOCTYPE svg PUBLIC "-//W3C//DTD SVG 1.1//EN" "http://www.w3.org/Graphics/SVG/1.1/DTD/svg11.dtd">
<svg version="1.1" xmlns="http://www.w3.org/2000/svg" xmlns:xlink="http://www.w3.org/1999/xlink" preserveAspectRatio="xMidYMid meet" viewBox="0 0 640 640" width="640" height="640"><defs><path d="M0 280C0 367.63 46.13 445.75 118.13 497.13C130.13 505.75 137.13 519.75 135 534.5C133.82 542.78 124.43 608.98 123.25 617.25C121.5 629.25 130.75 640 142.88 640C149.35 640 181.73 640 240 640C240 598 240 574.67 240 570C240 564.5 244.5 560 250 560C252 560 268 560 270 560C275.5 560 280 564.5 280 570C280 574.67 280 598 280 640L360 640C360 598 360 574.67 360 570C360 564.5 364.5 560 370 560C372 560 388 560 390 560C395.5 560 400 564.5 400 570C400 574.67 400 598 400 640C458.28 640 490.65 640 497.13 640C509.25 640 518.5 629.25 516.75 617.25C515.58 608.98 506.18 542.78 505 534.5C502.88 519.88 509.75 505.75 521.88 497.13C593.88 445.75 640 367.63 640 280C640 125.38 496.75 0 320 0C143.25 0 0 125.38 0 280ZM120 320C120 275.88 155.88 240 200 240C244.13 240 280 275.88 280 320C280 364.13 244.13 400 200 400C155.88 400 120 364.13 120 320ZM360 320C360 275.88 395.88 240 440 240C484.13 240 520 275.88 520 320C520 364.13 484.13 400 440 400C395.88 400 360 364.13 360 320Z" id="a4nrEdt7Dy"></path></defs><g><g><g><use xlink:href="#a4nrEdt7Dy" opacity="1" fill="#ff0000" fill-opacity="1"></use><g><use xlink:href="#a4nrEdt7Dy" opacity="1" fill-opacity="0" stroke="#000000" stroke-width="1" stroke-opacity="0"></use></g></g></g></g></svg>